<?xml version="1.0" encoding="utf-8" standalone="no"?>
<!DOCTYPE svg PUBLIC "-//W3C//DTD SVG 1.1//EN"
  "http://www.w3.org/Graphics/SVG/1.1/DTD/svg11.dtd">
<svg xmlns:xlink="http://www.w3.org/1999/xlink" width="432pt" height="288pt" viewBox="0 0 432 288" xmlns="http://www.w3.org/2000/svg" version="1.1">
 <metadata>
  <rdf:RDF xmlns:dc="http://purl.org/dc/elements/1.1/" xmlns:cc="http://creativecommons.org/ns#" xmlns:rdf="http://www.w3.org/1999/02/22-rdf-syntax-ns#">
   <cc:Work>
    <dc:type rdf:resource="http://purl.org/dc/dcmitype/StillImage"/>
    <dc:date>2024-09-02T17:50:15.217342</dc:date>
    <dc:format>image/svg+xml</dc:format>
    <dc:creator>
     <cc:Agent>
      <dc:title>Matplotlib v3.9.2, https://matplotlib.org/</dc:title>
     </cc:Agent>
    </dc:creator>
   </cc:Work>
  </rdf:RDF>
 </metadata>
 <defs>
  <style type="text/css">*{stroke-linejoin: round; stroke-linecap: butt}</style>
 </defs>
 <g id="figure_1">
  <g id="patch_1">
   <path d="M 0 288 
L 432 288 
L 432 0 
L 0 0 
z
" style="fill: #ffffff"/>
  </g>
  <g id="axes_1">
   <g id="patch_2">
    <path d="M 36.692959 112.288407 
L 424.018425 112.288407 
L 424.018425 3.00024 
L 36.692959 3.00024 
z
" style="fill: #ffffff"/>
   </g>
   <g id="matplotlib.axis_1">
    <g id="xtick_1">
     <g id="line2d_1">
      <defs>
       <path id="m69d961a625" d="M 0 0 
L 0 3.5 
" style="stroke: #000000; stroke-width: 0.8"/>
      </defs>
      <g>
       <use xlink:href="#m69d961a625" x="36.692959" y="112.288407" style="stroke: #000000; stroke-width: 0.8"/>
      </g>
     </g>
     <g id="text_1">
      <!-- $\mathdefault{0}$ -->
      <g transform="translate(34.202291 126.206905) scale(0.1 -0.1)">
       <defs>
        <path id="CMR17-30" d="M 2688 2038 
C 2688 2430 2682 3099 2413 3613 
C 2176 4063 1798 4224 1466 4224 
C 1158 4224 768 4082 525 3620 
C 269 3137 243 2539 243 2038 
C 243 1671 250 1112 448 623 
C 723 -39 1216 -128 1466 -128 
C 1760 -128 2208 -7 2470 604 
C 2662 1048 2688 1568 2688 2038 
z
M 1466 -26 
C 1056 -26 813 328 723 816 
C 653 1196 653 1749 653 2109 
C 653 2604 653 3015 736 3407 
C 858 3954 1216 4121 1466 4121 
C 1728 4121 2067 3947 2189 3420 
C 2272 3054 2278 2623 2278 2109 
C 2278 1691 2278 1176 2202 797 
C 2067 96 1690 -26 1466 -26 
z
" transform="scale(0.015625)"/>
       </defs>
       <use xlink:href="#CMR17-30" transform="scale(0.996264)"/>
      </g>
     </g>
    </g>
    <g id="xtick_2">
     <g id="line2d_2">
      <g>
       <use xlink:href="#m69d961a625" x="114.158052" y="112.288407" style="stroke: #000000; stroke-width: 0.8"/>
      </g>
     </g>
     <g id="text_2">
      <!-- $\mathdefault{10}$ -->
      <g transform="translate(109.176717 126.206905) scale(0.1 -0.1)">
       <defs>
        <path id="CMR17-31" d="M 1702 4083 
C 1702 4217 1696 4224 1606 4224 
C 1357 3927 979 3833 621 3820 
C 602 3820 570 3820 563 3808 
C 557 3795 557 3782 557 3648 
C 755 3648 1088 3686 1344 3839 
L 1344 467 
C 1344 243 1331 166 781 166 
L 589 166 
L 589 0 
C 896 6 1216 12 1523 12 
C 1830 12 2150 6 2458 0 
L 2458 166 
L 2266 166 
C 1715 166 1702 236 1702 467 
L 1702 4083 
z
" transform="scale(0.015625)"/>
       </defs>
       <use xlink:href="#CMR17-31" transform="scale(0.996264)"/>
       <use xlink:href="#CMR17-30" transform="translate(45.690477 0) scale(0.996264)"/>
      </g>
     </g>
    </g>
    <g id="xtick_3">
     <g id="line2d_3">
      <g>
       <use xlink:href="#m69d961a625" x="191.623145" y="112.288407" style="stroke: #000000; stroke-width: 0.8"/>
      </g>
     </g>
     <g id="text_3">
      <!-- $\mathdefault{20}$ -->
      <g transform="translate(186.64181 126.206905) scale(0.1 -0.1)">
       <defs>
        <path id="CMR17-32" d="M 2669 990 
L 2554 990 
C 2490 537 2438 460 2413 422 
C 2381 371 1920 371 1830 371 
L 602 371 
C 832 620 1280 1073 1824 1596 
C 2214 1966 2669 2400 2669 3033 
C 2669 3788 2067 4224 1395 4224 
C 691 4224 262 3603 262 3027 
C 262 2777 448 2745 525 2745 
C 589 2745 781 2783 781 3007 
C 781 3206 614 3264 525 3264 
C 486 3264 448 3257 422 3244 
C 544 3788 915 4057 1306 4057 
C 1862 4057 2227 3616 2227 3033 
C 2227 2477 1901 1998 1536 1583 
L 262 147 
L 262 0 
L 2515 0 
L 2669 990 
z
" transform="scale(0.015625)"/>
       </defs>
       <use xlink:href="#CMR17-32" transform="scale(0.996264)"/>
       <use xlink:href="#CMR17-30" transform="translate(45.690477 0) scale(0.996264)"/>
      </g>
     </g>
    </g>
    <g id="xtick_4">
     <g id="line2d_4">
      <g>
       <use xlink:href="#m69d961a625" x="269.088238" y="112.288407" style="stroke: #000000; stroke-width: 0.8"/>
      </g>
     </g>
     <g id="text_4">
      <!-- $\mathdefault{30}$ -->
      <g transform="translate(264.106903 126.206905) scale(0.1 -0.1)">
       <defs>
        <path id="CMR17-33" d="M 1414 2176 
C 1984 2176 2234 1673 2234 1094 
C 2234 322 1824 25 1453 25 
C 1114 25 563 193 390 691 
C 422 678 454 678 486 678 
C 640 678 755 780 755 947 
C 755 1132 614 1216 486 1216 
C 378 1216 211 1164 211 927 
C 211 335 787 -128 1466 -128 
C 2176 -128 2720 432 2720 1087 
C 2720 1718 2208 2176 1600 2246 
C 2086 2347 2554 2776 2554 3353 
C 2554 3856 2048 4224 1472 4224 
C 890 4224 378 3862 378 3347 
C 378 3123 544 3084 627 3084 
C 762 3084 877 3167 877 3334 
C 877 3500 762 3584 627 3584 
C 602 3584 570 3584 544 3571 
C 730 3999 1235 4076 1459 4076 
C 1683 4076 2106 3966 2106 3347 
C 2106 3167 2080 2851 1862 2574 
C 1670 2329 1453 2316 1242 2297 
C 1210 2297 1062 2284 1037 2284 
C 992 2278 966 2272 966 2227 
C 966 2182 973 2176 1101 2176 
L 1414 2176 
z
" transform="scale(0.015625)"/>
       </defs>
       <use xlink:href="#CMR17-33" transform="scale(0.996264)"/>
       <use xlink:href="#CMR17-30" transform="translate(45.690477 0) scale(0.996264)"/>
      </g>
     </g>
    </g>
    <g id="xtick_5">
     <g id="line2d_5">
      <g>
       <use xlink:href="#m69d961a625" x="346.553332" y="112.288407" style="stroke: #000000; stroke-width: 0.8"/>
      </g>
     </g>
     <g id="text_5">
      <!-- $\mathdefault{40}$ -->
      <g transform="translate(341.571996 126.206905) scale(0.1 -0.1)">
       <defs>
        <path id="CMR17-34" d="M 2150 4147 
C 2150 4281 2144 4288 2029 4288 
L 128 1254 
L 128 1088 
L 1779 1088 
L 1779 460 
C 1779 230 1766 166 1318 166 
L 1197 166 
L 1197 0 
C 1402 12 1747 12 1965 12 
C 2182 12 2528 12 2733 0 
L 2733 166 
L 2611 166 
C 2163 166 2150 230 2150 460 
L 2150 1088 
L 2803 1088 
L 2803 1254 
L 2150 1254 
L 2150 4147 
z
M 1798 3723 
L 1798 1254 
L 256 1254 
L 1798 3723 
z
" transform="scale(0.015625)"/>
       </defs>
       <use xlink:href="#CMR17-34" transform="scale(0.996264)"/>
       <use xlink:href="#CMR17-30" transform="translate(45.690477 0) scale(0.996264)"/>
      </g>
     </g>
    </g>
    <g id="xtick_6">
     <g id="line2d_6">
      <g>
       <use xlink:href="#m69d961a625" x="424.018425" y="112.288407" style="stroke: #000000; stroke-width: 0.8"/>
      </g>
     </g>
     <g id="text_6">
      <!-- $\mathdefault{50}$ -->
      <g transform="translate(419.037089 126.206905) scale(0.1 -0.1)">
       <defs>
        <path id="CMR17-35" d="M 730 3750 
C 794 3724 1056 3641 1325 3641 
C 1920 3641 2246 3961 2432 4140 
C 2432 4191 2432 4224 2394 4224 
C 2387 4224 2374 4224 2323 4198 
C 2099 4102 1837 4032 1517 4032 
C 1325 4032 1037 4055 723 4191 
C 653 4224 640 4224 634 4224 
C 602 4224 595 4217 595 4090 
L 595 2231 
C 595 2113 595 2080 659 2080 
C 691 2080 704 2093 736 2139 
C 941 2435 1222 2560 1542 2560 
C 1766 2560 2246 2415 2246 1293 
C 2246 1087 2246 716 2054 422 
C 1894 159 1645 25 1370 25 
C 947 25 518 319 403 812 
C 429 806 480 793 506 793 
C 589 793 749 838 749 1036 
C 749 1209 627 1280 506 1280 
C 358 1280 262 1190 262 1011 
C 262 454 704 -128 1382 -128 
C 2042 -128 2669 441 2669 1267 
C 2669 2054 2170 2662 1549 2662 
C 1222 2662 947 2540 730 2304 
L 730 3750 
z
" transform="scale(0.015625)"/>
       </defs>
       <use xlink:href="#CMR17-35" transform="scale(0.996264)"/>
       <use xlink:href="#CMR17-30" transform="translate(45.690477 0) scale(0.996264)"/>
      </g>
     </g>
    </g>
    <g id="text_7">
     <!-- \rmfamily{Time} $k$ -->
     <g transform="translate(214.7556 139.062582) scale(0.1 -0.1)">
      <defs>
       <path id="CMR17-54" d="M 3981 4332 
L 288 4332 
L 179 2924 
L 294 2924 
C 378 3981 467 4166 1453 4166 
C 1568 4166 1754 4166 1805 4159 
C 1926 4140 1926 4064 1926 3917 
L 1926 465 
C 1926 236 1907 166 1376 166 
L 1197 166 
L 1197 0 
C 1504 6 1824 12 2138 12 
C 2451 12 2771 6 3078 0 
L 3078 166 
L 2899 166 
C 2368 166 2349 236 2349 465 
L 2349 3917 
C 2349 4057 2349 4134 2464 4159 
C 2515 4166 2701 4166 2816 4166 
C 3795 4166 3891 3981 3974 2924 
L 4090 2924 
L 3981 4332 
z
" transform="scale(0.015625)"/>
       <path id="CMR17-69" d="M 992 3961 
C 992 4102 877 4224 730 4224 
C 589 4224 467 4108 467 3961 
C 467 3820 582 3699 730 3699 
C 870 3699 992 3814 992 3961 
z
M 243 2745 
L 243 2579 
C 602 2579 653 2540 653 2231 
L 653 443 
C 653 198 627 166 218 166 
L 218 0 
C 371 12 646 12 806 12 
C 960 12 1222 12 1370 0 
L 1370 166 
C 992 166 979 205 979 436 
L 979 2816 
L 243 2745 
z
" transform="scale(0.015625)"/>
       <path id="CMR17-6d" d="M 4326 1954 
C 4326 2276 4269 2816 3507 2816 
C 3072 2816 2771 2520 2656 2173 
L 2650 2173 
C 2573 2700 2195 2816 1837 2816 
C 1331 2816 1069 2424 973 2166 
L 966 2166 
L 966 2816 
L 211 2745 
L 211 2578 
C 589 2578 646 2540 646 2231 
L 646 443 
C 646 198 621 166 211 166 
L 211 0 
C 365 12 646 12 813 12 
C 979 12 1267 12 1421 0 
L 1421 166 
C 1011 166 986 192 986 443 
L 986 1678 
C 986 2269 1344 2713 1792 2713 
C 2266 2713 2317 2289 2317 1980 
L 2317 443 
C 2317 198 2291 166 1882 166 
L 1882 0 
C 2035 12 2317 12 2483 12 
C 2650 12 2938 12 3091 0 
L 3091 166 
C 2682 166 2656 192 2656 443 
L 2656 1678 
C 2656 2269 3014 2713 3462 2713 
C 3936 2713 3987 2289 3987 1980 
L 3987 443 
C 3987 198 3962 166 3552 166 
L 3552 0 
C 3706 12 3987 12 4154 12 
C 4320 12 4608 12 4762 0 
L 4762 166 
C 4352 166 4326 192 4326 443 
L 4326 1954 
z
" transform="scale(0.015625)"/>
       <path id="CMR17-65" d="M 2438 1503 
C 2464 1529 2464 1542 2464 1606 
C 2464 2251 2118 2816 1389 2816 
C 710 2816 173 2175 173 1394 
C 173 554 781 -64 1459 -64 
C 2176 -64 2458 619 2458 755 
C 2458 800 2419 800 2406 800 
C 2362 800 2355 787 2330 709 
C 2189 270 1837 51 1504 51 
C 1229 51 954 206 781 490 
C 582 819 582 1200 582 1503 
L 2438 1503 
z
M 589 1600 
C 634 2511 1126 2713 1382 2713 
C 1818 2713 2112 2308 2118 1600 
L 589 1600 
z
" transform="scale(0.015625)"/>
       <path id="CMMI12-6b" d="M 1798 4255 
C 1805 4281 1818 4319 1818 4351 
C 1818 4416 1754 4416 1741 4416 
C 1734 4416 1504 4396 1389 4383 
C 1280 4377 1184 4364 1069 4358 
C 915 4345 870 4339 870 4223 
C 870 4159 934 4159 998 4159 
C 1325 4159 1325 4103 1325 4040 
C 1325 4014 1325 4002 1293 3888 
L 378 250 
C 352 153 352 141 352 102 
C 352 -39 461 -64 525 -64 
C 704 -64 742 76 794 275 
L 1094 1476 
C 1555 1425 1830 1232 1830 924 
C 1830 885 1830 860 1811 763 
C 1786 667 1786 590 1786 558 
C 1786 185 2029 -64 2355 -64 
C 2650 -64 2803 205 2854 295 
C 2989 532 3072 892 3072 917 
C 3072 949 3046 975 3008 975 
C 2950 975 2944 949 2918 847 
C 2829 513 2694 64 2368 64 
C 2240 64 2157 128 2157 372 
C 2157 494 2182 635 2208 731 
C 2234 847 2234 853 2234 930 
C 2234 1309 1894 1521 1306 1598 
C 1536 1739 1766 1989 1856 2086 
C 2221 2495 2470 2687 2765 2687 
C 2912 2687 2950 2655 2995 2624 
C 2758 2598 2669 2431 2669 2303 
C 2669 2150 2790 2099 2880 2099 
C 3053 2099 3206 2246 3206 2451 
C 3206 2634 3059 2816 2771 2816 
C 2419 2816 2131 2579 1677 2067 
C 1613 1989 1376 1746 1139 1656 
L 1798 4255 
z
" transform="scale(0.015625)"/>
      </defs>
      <use xlink:href="#CMR17-54" transform="scale(0.996264)"/>
      <use xlink:href="#CMR17-69" transform="translate(66.509881 0) scale(0.996264)"/>
      <use xlink:href="#CMR17-6d" transform="translate(91.380939 0) scale(0.996264)"/>
      <use xlink:href="#CMR17-65" transform="translate(168.300529 0) scale(0.996264)"/>
      <use xlink:href="#CMMI12-6b" transform="translate(238.862156 0) scale(0.996264)"/>
     </g>
    </g>
   </g>
   <g id="matplotlib.axis_2">
    <g id="ytick_1">
     <g id="line2d_7">
      <defs>
       <path id="mfc06d979f0" d="M 0 0 
L -3.5 0 
" style="stroke: #000000; stroke-width: 0.8"/>
      </defs>
      <g>
       <use xlink:href="#mfc06d979f0" x="36.692959" y="94.073712" style="stroke: #000000; stroke-width: 0.8"/>
      </g>
     </g>
     <g id="text_8">
      <!-- $\mathdefault{−2}$ -->
      <g transform="translate(16.96288 97.532961) scale(0.1 -0.1)">
       <defs>
        <path id="CMSY10-0" d="M 4218 1472 
C 4326 1472 4442 1472 4442 1600 
C 4442 1728 4326 1728 4218 1728 
L 755 1728 
C 646 1728 531 1728 531 1600 
C 531 1472 646 1472 755 1472 
L 4218 1472 
z
" transform="scale(0.015625)"/>
       </defs>
       <use xlink:href="#CMSY10-0" transform="scale(0.996264)"/>
       <use xlink:href="#CMR17-32" transform="translate(77.487468 0) scale(0.996264)"/>
      </g>
     </g>
    </g>
    <g id="ytick_2">
     <g id="line2d_8">
      <g>
       <use xlink:href="#mfc06d979f0" x="36.692959" y="57.644323" style="stroke: #000000; stroke-width: 0.8"/>
      </g>
     </g>
     <g id="text_9">
      <!-- $\mathdefault{0}$ -->
      <g transform="translate(24.711624 61.103572) scale(0.1 -0.1)">
       <use xlink:href="#CMR17-30" transform="scale(0.996264)"/>
      </g>
     </g>
    </g>
    <g id="ytick_3">
     <g id="line2d_9">
      <g>
       <use xlink:href="#mfc06d979f0" x="36.692959" y="21.214934" style="stroke: #000000; stroke-width: 0.8"/>
      </g>
     </g>
     <g id="text_10">
      <!-- $\mathdefault{2}$ -->
      <g transform="translate(24.711624 24.674184) scale(0.1 -0.1)">
       <use xlink:href="#CMR17-32" transform="scale(0.996264)"/>
      </g>
     </g>
    </g>
    <g id="text_11">
     <!-- $x(k)$ -->
     <g transform="translate(10.47222 67.115763) rotate(-90) scale(0.1 -0.1)">
      <defs>
       <path id="CMMI12-78" d="M 3034 2624 
C 2829 2585 2752 2431 2752 2310 
C 2752 2156 2874 2105 2963 2105 
C 3155 2105 3290 2271 3290 2444 
C 3290 2694 2982 2816 2714 2816 
C 2323 2816 2106 2451 2048 2329 
C 1901 2790 1504 2816 1389 2816 
C 736 2816 390 1993 390 1849 
C 390 1823 416 1790 461 1790 
C 512 1790 525 1829 538 1855 
C 755 2572 1184 2687 1370 2687 
C 1658 2687 1715 2438 1715 2284 
C 1715 2143 1677 1993 1600 1678 
L 1382 778 
C 1286 390 1101 64 762 64 
C 730 64 570 64 435 126 
C 666 166 717 358 717 435 
C 717 563 621 640 499 640 
C 346 640 179 505 179 300 
C 179 57 480 -64 755 -64 
C 1062 -64 1280 153 1414 415 
C 1517 64 1837 -64 2074 -64 
C 2726 -64 3072 751 3072 896 
C 3072 929 3046 955 3008 955 
C 2950 955 2944 922 2925 870 
C 2752 300 2381 64 2093 64 
C 1869 64 1747 204 1747 467 
C 1747 607 1773 712 1875 1146 
L 2099 2039 
C 2195 2425 2413 2687 2707 2687 
C 2720 2687 2899 2687 3034 2624 
z
" transform="scale(0.015625)"/>
       <path id="CMR17-28" d="M 1958 -1562 
C 1958 -1556 1958 -1543 1939 -1524 
C 1645 -1223 858 -403 858 1596 
C 858 3595 1632 4408 1946 4729 
C 1946 4735 1958 4748 1958 4767 
C 1958 4787 1939 4800 1914 4800 
C 1843 4800 1299 4325 986 3620 
C 666 2909 576 2218 576 1603 
C 576 1141 621 360 1005 -467 
C 1312 -1133 1837 -1600 1914 -1600 
C 1946 -1600 1958 -1588 1958 -1562 
z
" transform="scale(0.015625)"/>
       <path id="CMR17-29" d="M 1683 1596 
C 1683 2057 1638 2839 1254 3665 
C 947 4332 422 4800 346 4800 
C 326 4800 301 4793 301 4761 
C 301 4748 307 4742 314 4729 
C 621 4408 1402 3595 1402 1603 
C 1402 -396 627 -1210 314 -1530 
C 307 -1543 301 -1549 301 -1562 
C 301 -1594 326 -1600 346 -1600 
C 416 -1600 960 -1127 1274 -422 
C 1594 289 1683 981 1683 1596 
z
" transform="scale(0.015625)"/>
      </defs>
      <use xlink:href="#CMMI12-78" transform="scale(0.996264)"/>
      <use xlink:href="#CMR17-28" transform="translate(55.43406 0) scale(0.996264)"/>
      <use xlink:href="#CMMI12-6b" transform="translate(90.714827 0) scale(0.996264)"/>
      <use xlink:href="#CMR17-29" transform="translate(144.794028 0) scale(0.996264)"/>
     </g>
    </g>
   </g>
   <g id="line2d_10">
    <path d="M 36.692959 94.073712 
L 44.439468 70.193781 
L 52.185978 54.783864 
L 59.932487 47.74668 
L 67.678996 48.051428 
L 75.425506 54.094693 
L 83.172015 63.386227 
L 90.918524 73.291482 
L 98.665034 82.210325 
L 106.411543 87.434259 
L 114.158052 86.134059 
L 121.904562 78.931087 
L 129.651071 66.751671 
L 137.39758 66.751671 
L 145.144089 66.751671 
L 152.890599 66.751671 
L 160.637108 66.75167 
L 168.383617 65.308769 
L 176.130127 59.357276 
L 183.876636 51.421661 
L 191.623145 48.536976 
L 199.369655 48.536976 
L 207.116164 48.536976 
L 214.862673 48.536976 
L 222.609183 28.25683 
L 230.355692 21.214934 
L 238.102201 21.214934 
L 245.848711 21.214934 
L 253.59522 25.44026 
L 261.341729 34.329434 
L 269.088238 46.444578 
L 276.834748 59.598182 
L 284.581257 71.957229 
L 292.327766 79.744437 
L 300.074276 81.007511 
L 307.820785 76.367814 
L 315.567294 66.751671 
L 323.313804 66.751671 
L 331.060313 66.751671 
L 338.806822 66.751671 
L 346.553332 66.75167 
L 354.299841 65.308769 
L 362.04635 59.357276 
L 369.79286 51.421661 
L 377.539369 48.536976 
L 385.285878 48.536976 
L 393.032387 48.536976 
L 400.778897 48.536976 
L 408.525406 28.25683 
L 416.271915 21.214934 
L 424.018425 21.214934 
" clip-path="url(#pcc10d789c8)" style="fill: none; stroke: #1f77b4; stroke-width: 1.5; stroke-linecap: square"/>
   </g>
   <g id="line2d_11">
    <path d="M 36.692959 85.978292 
L 44.439468 63.110289 
L 52.185978 48.585809 
L 59.932487 42.43406 
L 67.678996 43.624245 
L 75.425506 50.240421 
L 83.172015 60.082566 
L 90.918524 70.963172 
L 98.665034 80.658118 
L 106.411543 86.270104 
L 114.158052 85.357956 
L 121.904562 78.543036 
L 129.651071 66.751671 
L 137.39758 66.751671 
L 145.144089 66.751671 
L 152.890599 66.751671 
L 160.637108 66.75167 
L 168.383617 65.308769 
L 176.130127 59.357276 
L 183.876636 51.421661 
L 191.623145 48.536976 
L 199.369655 48.536976 
L 207.116164 48.536976 
L 214.862673 48.536976 
L 222.609183 28.25683 
L 230.355692 21.214934 
L 238.102201 21.214934 
L 245.848711 21.214934 
L 253.59522 25.44026 
L 261.341729 34.329434 
L 269.088238 46.444578 
L 276.834748 59.598182 
L 284.581257 71.957229 
L 292.327766 79.744437 
L 300.074276 81.007511 
L 307.820785 76.367814 
L 315.567294 66.751671 
L 323.313804 66.751671 
L 331.060313 66.751671 
L 338.806822 66.751671 
L 346.553332 66.75167 
L 354.299841 65.308769 
L 362.04635 59.357276 
L 369.79286 51.421661 
L 377.539369 48.536976 
L 385.285878 48.536976 
L 393.032387 48.536976 
L 400.778897 48.536976 
L 408.525406 28.25683 
L 416.271915 21.214934 
L 424.018425 21.214934 
" clip-path="url(#pcc10d789c8)" style="fill: none; stroke: #1f77b4; stroke-width: 1.5; stroke-linecap: square"/>
   </g>
   <g id="line2d_12">
    <path d="M 36.692959 77.882873 
L 44.439468 56.026797 
L 52.185978 42.387753 
L 59.932487 37.121441 
L 67.678996 39.074408 
L 75.425506 46.259314 
L 83.172015 56.670189 
L 90.918524 68.119525 
L 98.665034 78.762345 
L 106.411543 84.848274 
L 114.158052 84.410069 
L 121.904562 78.069092 
L 129.651071 66.751671 
L 137.39758 66.751671 
L 145.144089 66.751671 
L 152.890599 66.751671 
L 160.637108 66.75167 
L 168.383617 65.308769 
L 176.130127 59.357276 
L 183.876636 51.421661 
L 191.623145 48.536976 
L 199.369655 48.536976 
L 207.116164 48.536976 
L 214.862673 48.536976 
L 222.609183 28.25683 
L 230.355692 21.214934 
L 238.102201 21.214934 
L 245.848711 21.214934 
L 253.59522 25.44026 
L 261.341729 34.329434 
L 269.088238 46.444578 
L 276.834748 59.598182 
L 284.581257 71.957229 
L 292.327766 79.744437 
L 300.074276 81.007511 
L 307.820785 76.367814 
L 315.567294 66.751671 
L 323.313804 66.751671 
L 331.060313 66.751671 
L 338.806822 66.751671 
L 346.553332 66.75167 
L 354.299841 65.308769 
L 362.04635 59.357276 
L 369.79286 51.421661 
L 377.539369 48.536976 
L 385.285878 48.536976 
L 393.032387 48.536976 
L 400.778897 48.536976 
L 408.525406 28.25683 
L 416.271915 21.214934 
L 424.018425 21.214934 
" clip-path="url(#pcc10d789c8)" style="fill: none; stroke: #1f77b4; stroke-width: 1.5; stroke-linecap: square"/>
   </g>
   <g id="line2d_13">
    <path d="M 36.692959 69.787453 
L 44.439468 48.943304 
L 52.185978 36.189697 
L 59.932487 31.775009 
L 67.678996 34.491752 
L 75.425506 42.24949 
L 83.172015 53.233197 
L 90.918524 65.255365 
L 98.665034 76.482975 
L 106.411543 83.138747 
L 114.158052 83.270384 
L 121.904562 77.49925 
L 129.651071 66.751671 
L 137.39758 66.751671 
L 145.144089 66.751671 
L 152.890599 66.751671 
L 160.637108 66.75167 
L 168.383617 65.308769 
L 176.130127 59.357276 
L 183.876636 51.421661 
L 191.623145 48.536976 
L 199.369655 48.536976 
L 207.116164 48.536976 
L 214.862673 48.536976 
L 222.609183 28.25683 
L 230.355692 21.214934 
L 238.102201 21.214934 
L 245.848711 21.214934 
L 253.59522 25.44026 
L 261.341729 34.329434 
L 269.088238 46.444578 
L 276.834748 59.598182 
L 284.581257 71.957229 
L 292.327766 79.744437 
L 300.074276 81.007511 
L 307.820785 76.367814 
L 315.567294 66.751671 
L 323.313804 66.751671 
L 331.060313 66.751671 
L 338.806822 66.751671 
L 346.553332 66.75167 
L 354.299841 65.308769 
L 362.04635 59.357276 
L 369.79286 51.421661 
L 377.539369 48.536976 
L 385.285878 48.536976 
L 393.032387 48.536976 
L 400.778897 48.536976 
L 408.525406 28.25683 
L 416.271915 21.214934 
L 424.018425 21.214934 
" clip-path="url(#pcc10d789c8)" style="fill: none; stroke: #1f77b4; stroke-width: 1.5; stroke-linecap: square"/>
   </g>
   <g id="line2d_14">
    <path d="M 36.692959 61.692033 
L 44.439468 41.859812 
L 52.185978 29.991641 
L 59.932487 26.351711 
L 67.678996 29.843211 
L 75.425506 38.182017 
L 83.172015 49.746791 
L 90.918524 62.350027 
L 98.665034 74.158705 
L 106.411543 81.395544 
L 114.158052 82.108249 
L 121.904562 76.918182 
L 129.651071 66.751671 
L 137.39758 66.751671 
L 145.144089 66.751671 
L 152.890599 66.751671 
L 160.637108 66.75167 
L 168.383617 65.308769 
L 176.130127 59.357276 
L 183.876636 51.421661 
L 191.623145 48.536976 
L 199.369655 48.536976 
L 207.116164 48.536976 
L 214.862673 48.536976 
L 222.609183 28.25683 
L 230.355692 21.214934 
L 238.102201 21.214934 
L 245.848711 21.214934 
L 253.59522 25.44026 
L 261.341729 34.329434 
L 269.088238 46.444578 
L 276.834748 59.598182 
L 284.581257 71.957229 
L 292.327766 79.744437 
L 300.074276 81.007511 
L 307.820785 76.367814 
L 315.567294 66.751671 
L 323.313804 66.751671 
L 331.060313 66.751671 
L 338.806822 66.751671 
L 346.553332 66.75167 
L 354.299841 65.308769 
L 362.04635 59.357276 
L 369.79286 51.421661 
L 377.539369 48.536976 
L 385.285878 48.536976 
L 393.032387 48.536976 
L 400.778897 48.536976 
L 408.525406 28.25683 
L 416.271915 21.214934 
L 424.018425 21.214934 
" clip-path="url(#pcc10d789c8)" style="fill: none; stroke: #1f77b4; stroke-width: 1.5; stroke-linecap: square"/>
   </g>
   <g id="line2d_15">
    <path d="M 36.692959 53.596613 
L 44.439468 34.77632 
L 52.185978 23.793586 
L 59.932487 21.214936 
L 67.678996 25.440261 
L 75.425506 34.329435 
L 83.172015 46.444578 
L 90.918524 59.598183 
L 98.665034 71.95723 
L 106.411543 79.744438 
L 114.158052 81.007512 
L 121.904562 76.367814 
L 129.651071 66.751671 
L 137.39758 66.751671 
L 145.144089 66.751671 
L 152.890599 66.751671 
L 160.637108 66.75167 
L 168.383617 65.308769 
L 176.130127 59.357276 
L 183.876636 51.421661 
L 191.623145 48.536976 
L 199.369655 48.536976 
L 207.116164 48.536976 
L 214.862673 48.536976 
L 222.609183 28.25683 
L 230.355692 21.214934 
L 238.102201 21.214934 
L 245.848711 21.214934 
L 253.59522 25.44026 
L 261.341729 34.329434 
L 269.088238 46.444578 
L 276.834748 59.598182 
L 284.581257 71.957229 
L 292.327766 79.744437 
L 300.074276 81.007511 
L 307.820785 76.367814 
L 315.567294 66.751671 
L 323.313804 66.751671 
L 331.060313 66.751671 
L 338.806822 66.751671 
L 346.553332 66.75167 
L 354.299841 65.308769 
L 362.04635 59.357276 
L 369.79286 51.421661 
L 377.539369 48.536976 
L 385.285878 48.536976 
L 393.032387 48.536976 
L 400.778897 48.536976 
L 408.525406 28.25683 
L 416.271915 21.214934 
L 424.018425 21.214934 
" clip-path="url(#pcc10d789c8)" style="fill: none; stroke: #1f77b4; stroke-width: 1.5; stroke-linecap: square"/>
   </g>
   <g id="line2d_16">
    <path d="M 36.692959 45.501194 
L 44.439468 27.692828 
L 52.185978 21.214934 
L 59.932487 21.214934 
L 67.678996 25.44026 
L 75.425506 34.329434 
L 83.172015 46.444578 
L 90.918524 59.598182 
L 98.665034 71.957229 
L 106.411543 79.744437 
L 114.158052 81.007511 
L 121.904562 76.367814 
L 129.651071 66.751671 
L 137.39758 66.751671 
L 145.144089 66.751671 
L 152.890599 66.751671 
L 160.637108 66.75167 
L 168.383617 65.308769 
L 176.130127 59.357276 
L 183.876636 51.421661 
L 191.623145 48.536976 
L 199.369655 48.536976 
L 207.116164 48.536976 
L 214.862673 48.536976 
L 222.609183 28.25683 
L 230.355692 21.214934 
L 238.102201 21.214934 
L 245.848711 21.214934 
L 253.59522 25.44026 
L 261.341729 34.329434 
L 269.088238 46.444578 
L 276.834748 59.598182 
L 284.581257 71.957229 
L 292.327766 79.744437 
L 300.074276 81.007511 
L 307.820785 76.367814 
L 315.567294 66.751671 
L 323.313804 66.751671 
L 331.060313 66.751671 
L 338.806822 66.751671 
L 346.553332 66.75167 
L 354.299841 65.308769 
L 362.04635 59.357276 
L 369.79286 51.421661 
L 377.539369 48.536976 
L 385.285878 48.536976 
L 393.032387 48.536976 
L 400.778897 48.536976 
L 408.525406 28.25683 
L 416.271915 21.214934 
L 424.018425 21.214934 
" clip-path="url(#pcc10d789c8)" style="fill: none; stroke: #1f77b4; stroke-width: 1.5; stroke-linecap: square"/>
   </g>
   <g id="line2d_17">
    <path d="M 36.692959 37.405774 
L 44.439468 22.69123 
L 52.185978 21.214934 
L 59.932487 21.214934 
L 67.678996 25.44026 
L 75.425506 34.329434 
L 83.172015 46.444578 
L 90.918524 59.598182 
L 98.665034 71.957229 
L 106.411543 79.744437 
L 114.158052 81.007511 
L 121.904562 76.367814 
L 129.651071 66.751671 
L 137.39758 66.751671 
L 145.144089 66.751671 
L 152.890599 66.751671 
L 160.637108 66.75167 
L 168.383617 65.308769 
L 176.130127 59.357276 
L 183.876636 51.421661 
L 191.623145 48.536976 
L 199.369655 48.536976 
L 207.116164 48.536976 
L 214.862673 48.536976 
L 222.609183 28.25683 
L 230.355692 21.214934 
L 238.102201 21.214934 
L 245.848711 21.214934 
L 253.59522 25.44026 
L 261.341729 34.329434 
L 269.088238 46.444578 
L 276.834748 59.598182 
L 284.581257 71.957229 
L 292.327766 79.744437 
L 300.074276 81.007511 
L 307.820785 76.367814 
L 315.567294 66.751671 
L 323.313804 66.751671 
L 331.060313 66.751671 
L 338.806822 66.751671 
L 346.553332 66.75167 
L 354.299841 65.308769 
L 362.04635 59.357276 
L 369.79286 51.421661 
L 377.539369 48.536976 
L 385.285878 48.536976 
L 393.032387 48.536976 
L 400.778897 48.536976 
L 408.525406 28.25683 
L 416.271915 21.214934 
L 424.018425 21.214934 
" clip-path="url(#pcc10d789c8)" style="fill: none; stroke: #1f77b4; stroke-width: 1.5; stroke-linecap: square"/>
   </g>
   <g id="line2d_18">
    <path d="M 36.692959 29.310354 
L 44.439468 21.214934 
L 52.185978 21.214934 
L 59.932487 21.214934 
L 67.678996 25.44026 
L 75.425506 34.329434 
L 83.172015 46.444578 
L 90.918524 59.598182 
L 98.665034 71.957229 
L 106.411543 79.744437 
L 114.158052 81.007511 
L 121.904562 76.367814 
L 129.651071 66.751671 
L 137.39758 66.751671 
L 145.144089 66.751671 
L 152.890599 66.751671 
L 160.637108 66.75167 
L 168.383617 65.308769 
L 176.130127 59.357276 
L 183.876636 51.421661 
L 191.623145 48.536976 
L 199.369655 48.536976 
L 207.116164 48.536976 
L 214.862673 48.536976 
L 222.609183 28.25683 
L 230.355692 21.214934 
L 238.102201 21.214934 
L 245.848711 21.214934 
L 253.59522 25.44026 
L 261.341729 34.329434 
L 269.088238 46.444578 
L 276.834748 59.598182 
L 284.581257 71.957229 
L 292.327766 79.744437 
L 300.074276 81.007511 
L 307.820785 76.367814 
L 315.567294 66.751671 
L 323.313804 66.751671 
L 331.060313 66.751671 
L 338.806822 66.751671 
L 346.553332 66.75167 
L 354.299841 65.308769 
L 362.04635 59.357276 
L 369.79286 51.421661 
L 377.539369 48.536976 
L 385.285878 48.536976 
L 393.032387 48.536976 
L 400.778897 48.536976 
L 408.525406 28.25683 
L 416.271915 21.214934 
L 424.018425 21.214934 
" clip-path="url(#pcc10d789c8)" style="fill: none; stroke: #1f77b4; stroke-width: 1.5; stroke-linecap: square"/>
   </g>
   <g id="line2d_19">
    <path d="M 36.692959 21.214934 
L 44.439468 21.214934 
L 52.185978 21.214934 
L 59.932487 21.214934 
L 67.678996 25.44026 
L 75.425506 34.329434 
L 83.172015 46.444578 
L 90.918524 59.598182 
L 98.665034 71.957229 
L 106.411543 79.744437 
L 114.158052 81.007511 
L 121.904562 76.367814 
L 129.651071 66.751671 
L 137.39758 66.751671 
L 145.144089 66.751671 
L 152.890599 66.751671 
L 160.637108 66.75167 
L 168.383617 65.308769 
L 176.130127 59.357276 
L 183.876636 51.421661 
L 191.623145 48.536976 
L 199.369655 48.536976 
L 207.116164 48.536976 
L 214.862673 48.536976 
L 222.609183 28.25683 
L 230.355692 21.214934 
L 238.102201 21.214934 
L 245.848711 21.214934 
L 253.59522 25.44026 
L 261.341729 34.329434 
L 269.088238 46.444578 
L 276.834748 59.598182 
L 284.581257 71.957229 
L 292.327766 79.744437 
L 300.074276 81.007511 
L 307.820785 76.367814 
L 315.567294 66.751671 
L 323.313804 66.751671 
L 331.060313 66.751671 
L 338.806822 66.751671 
L 346.553332 66.75167 
L 354.299841 65.308769 
L 362.04635 59.357276 
L 369.79286 51.421661 
L 377.539369 48.536976 
L 385.285878 48.536976 
L 393.032387 48.536976 
L 400.778897 48.536976 
L 408.525406 28.25683 
L 416.271915 21.214934 
L 424.018425 21.214934 
" clip-path="url(#pcc10d789c8)" style="fill: none; stroke: #1f77b4; stroke-width: 1.5; stroke-linecap: square"/>
   </g>
   <g id="line2d_20">
    <path d="M 36.692959 21.214934 
L 44.439468 21.214934 
L 52.185978 21.214934 
L 59.932487 21.214934 
L 67.678996 21.214934 
L 75.425506 21.214934 
L 83.172015 21.214934 
L 90.918524 21.214934 
L 98.665034 21.214934 
L 106.411543 21.214934 
L 114.158052 21.214934 
L 121.904562 21.214934 
L 129.651071 48.536976 
L 137.39758 48.536976 
L 145.144089 48.536976 
L 152.890599 48.536976 
L 160.637108 48.536976 
L 168.383617 48.536976 
L 176.130127 48.536976 
L 183.876636 48.536976 
L 191.623145 48.536976 
L 199.369655 48.536976 
L 207.116164 48.536976 
L 214.862673 48.536976 
L 222.609183 21.214934 
L 230.355692 21.214934 
L 238.102201 21.214934 
L 245.848711 21.214934 
L 253.59522 21.214934 
L 261.341729 21.214934 
L 269.088238 21.214934 
L 276.834748 21.214934 
L 284.581257 21.214934 
L 292.327766 21.214934 
L 300.074276 21.214934 
L 307.820785 21.214934 
L 315.567294 48.536976 
L 323.313804 48.536976 
L 331.060313 48.536976 
L 338.806822 48.536976 
L 346.553332 48.536976 
L 354.299841 48.536976 
L 362.04635 48.536976 
L 369.79286 48.536976 
L 377.539369 48.536976 
L 385.285878 48.536976 
L 393.032387 48.536976 
L 400.778897 48.536976 
L 408.525406 21.214934 
L 416.271915 21.214934 
L 424.018425 21.214934 
" clip-path="url(#pcc10d789c8)" style="fill: none; stroke-dasharray: 5.55,2.4; stroke-dashoffset: 0; stroke: #d62728; stroke-width: 1.5"/>
   </g>
   <g id="line2d_21">
    <path d="M 36.692959 94.073712 
L 44.439468 94.073712 
L 52.185978 94.073712 
L 59.932487 94.073712 
L 67.678996 94.073712 
L 75.425506 94.073712 
L 83.172015 94.073712 
L 90.918524 94.073712 
L 98.665034 94.073712 
L 106.411543 94.073712 
L 114.158052 94.073712 
L 121.904562 94.073712 
L 129.651071 66.751671 
L 137.39758 66.751671 
L 145.144089 66.751671 
L 152.890599 66.751671 
L 160.637108 66.751671 
L 168.383617 66.751671 
L 176.130127 66.751671 
L 183.876636 66.751671 
L 191.623145 66.751671 
L 199.369655 66.751671 
L 207.116164 66.751671 
L 214.862673 66.751671 
L 222.609183 94.073712 
L 230.355692 94.073712 
L 238.102201 94.073712 
L 245.848711 94.073712 
L 253.59522 94.073712 
L 261.341729 94.073712 
L 269.088238 94.073712 
L 276.834748 94.073712 
L 284.581257 94.073712 
L 292.327766 94.073712 
L 300.074276 94.073712 
L 307.820785 94.073712 
L 315.567294 66.751671 
L 323.313804 66.751671 
L 331.060313 66.751671 
L 338.806822 66.751671 
L 346.553332 66.751671 
L 354.299841 66.751671 
L 362.04635 66.751671 
L 369.79286 66.751671 
L 377.539369 66.751671 
L 385.285878 66.751671 
L 393.032387 66.751671 
L 400.778897 66.751671 
L 408.525406 94.073712 
L 416.271915 94.073712 
L 424.018425 94.073712 
" clip-path="url(#pcc10d789c8)" style="fill: none; stroke-dasharray: 5.55,2.4; stroke-dashoffset: 0; stroke: #d62728; stroke-width: 1.5"/>
   </g>
   <g id="patch_3">
    <path d="M 36.692959 112.288407 
L 36.692959 3.00024 
" style="fill: none; stroke: #000000; stroke-width: 0.8; stroke-linejoin: miter; stroke-linecap: square"/>
   </g>
   <g id="patch_4">
    <path d="M 424.018425 112.288407 
L 424.018425 3.00024 
" style="fill: none; stroke: #000000; stroke-width: 0.8; stroke-linejoin: miter; stroke-linecap: square"/>
   </g>
   <g id="patch_5">
    <path d="M 36.692959 112.288407 
L 424.018425 112.288407 
" style="fill: none; stroke: #000000; stroke-width: 0.8; stroke-linejoin: miter; stroke-linecap: square"/>
   </g>
   <g id="patch_6">
    <path d="M 36.692959 3.00024 
L 424.018425 3.00024 
" style="fill: none; stroke: #000000; stroke-width: 0.8; stroke-linejoin: miter; stroke-linecap: square"/>
   </g>
   <g id="legend_1">
    <g id="patch_7">
     <path d="M 332.105642 24.937418 
L 417.018425 24.937418 
Q 419.018425 24.937418 419.018425 22.937418 
L 419.018425 10.00024 
Q 419.018425 8.00024 417.018425 8.00024 
L 332.105642 8.00024 
Q 330.105642 8.00024 330.105642 10.00024 
L 330.105642 22.937418 
Q 330.105642 24.937418 332.105642 24.937418 
z
" style="fill: #ffffff; opacity: 0.8; stroke: #cccccc; stroke-linejoin: miter"/>
    </g>
    <g id="line2d_22">
     <path d="M 334.105642 15.50024 
L 344.105642 15.50024 
L 354.105642 15.50024 
" style="fill: none; stroke: #1f77b4; stroke-width: 1.5; stroke-linecap: square"/>
    </g>
    <g id="text_12">
     <!-- Temperature -->
     <g transform="translate(362.105642 19.00024) scale(0.1 -0.1)">
      <defs>
       <path id="CMSS17-54" d="M 2317 3987 
L 2848 3987 
C 2925 3987 3002 3980 3078 3980 
L 3878 3980 
L 3878 4396 
L 218 4396 
L 218 3980 
L 1018 3980 
C 1094 3980 1171 3987 1248 3987 
L 1779 3987 
L 1779 0 
L 2317 0 
L 2317 3987 
z
" transform="scale(0.015625)"/>
       <path id="CMSS17-65" d="M 2502 1375 
C 2502 1587 2490 2001 2285 2347 
C 2061 2713 1696 2816 1421 2816 
C 755 2816 192 2184 192 1363 
C 192 579 774 -64 1510 -64 
C 1798 -64 2150 19 2470 249 
C 2470 275 2458 414 2451 421 
C 2451 433 2432 629 2432 655 
C 2125 408 1773 326 1517 326 
C 1107 326 666 667 646 1375 
L 2502 1375 
z
M 698 1728 
C 781 2086 1062 2425 1421 2425 
C 1517 2425 1965 2412 2080 1728 
L 698 1728 
z
" transform="scale(0.015625)"/>
       <path id="CMSS17-6d" d="M 4288 1878 
C 4288 2309 4179 2816 3462 2816 
C 2982 2816 2694 2515 2566 2328 
C 2451 2668 2182 2816 1798 2816 
C 1363 2816 1088 2566 941 2386 
L 941 2783 
L 474 2783 
L 474 0 
L 960 0 
L 960 1556 
C 960 1936 1101 2425 1555 2425 
C 2138 2425 2138 2013 2138 1826 
L 2138 0 
L 2624 0 
L 2624 1556 
C 2624 1936 2765 2425 3219 2425 
C 3802 2425 3802 2013 3802 1826 
L 3802 0 
L 4288 0 
L 4288 1878 
z
" transform="scale(0.015625)"/>
       <path id="CMSS17-70" d="M 966 275 
C 1178 70 1466 -64 1773 -64 
C 2368 -64 2880 553 2880 1382 
C 2880 2147 2496 2816 1946 2816 
C 1626 2816 1242 2700 954 2470 
L 954 2764 
L 480 2764 
L 480 -1280 
L 966 -1280 
L 966 275 
z
M 966 2088 
C 1018 2166 1235 2412 1587 2412 
C 2035 2412 2394 1946 2394 1382 
C 2394 741 1958 326 1530 326 
C 1402 326 1267 358 1139 468 
C 966 624 966 721 966 812 
L 966 2088 
z
" transform="scale(0.015625)"/>
       <path id="CMSS17-72" d="M 954 1369 
C 954 1974 1395 2379 1958 2392 
L 1958 2816 
C 1549 2809 1165 2604 934 2270 
L 934 2783 
L 480 2783 
L 480 0 
L 954 0 
L 954 1369 
z
" transform="scale(0.015625)"/>
       <path id="CMSS17-61" d="M 2406 1789 
C 2406 2399 1978 2816 1402 2816 
C 1120 2816 813 2764 461 2559 
L 499 2133 
C 659 2250 934 2438 1395 2438 
C 1722 2438 1920 2185 1920 1782 
L 1920 1536 
C 896 1504 256 1209 256 711 
C 256 452 416 -64 947 -64 
C 1043 -64 1562 -52 1933 224 
L 1933 -13 
L 2406 -13 
L 2406 1789 
z
M 1920 824 
C 1920 711 1920 559 1728 446 
C 1562 339 1350 326 1261 326 
C 941 326 723 503 723 723 
C 723 1165 1722 1209 1920 1216 
L 1920 824 
z
" transform="scale(0.015625)"/>
       <path id="CMSS17-74" d="M 1069 2380 
L 1901 2380 
L 1901 2752 
L 1069 2752 
L 1069 3520 
L 614 3520 
L 614 2752 
L 109 2752 
L 109 2380 
L 602 2380 
L 602 751 
C 602 384 685 -64 1107 -64 
C 1427 -64 1722 25 2003 172 
L 1901 551 
C 1747 416 1562 339 1363 339 
C 1082 339 1069 699 1069 860 
L 1069 2380 
z
" transform="scale(0.015625)"/>
       <path id="CMSS17-75" d="M 2618 2752 
L 2131 2752 
L 2131 976 
C 2131 500 1786 307 1421 307 
C 998 307 960 448 960 712 
L 960 2752 
L 474 2752 
L 474 680 
C 474 179 646 -64 1088 -64 
C 1306 -64 1798 -13 2144 307 
L 2144 -13 
L 2618 -13 
L 2618 2752 
z
" transform="scale(0.015625)"/>
      </defs>
      <use xlink:href="#CMSS17-54" transform="scale(0.996264)"/>
      <use xlink:href="#CMSS17-65" transform="translate(56.012199 0) scale(0.996264)"/>
      <use xlink:href="#CMSS17-6d" transform="translate(97.651021 0) scale(0.996264)"/>
      <use xlink:href="#CMSS17-70" transform="translate(171.880275 0) scale(0.996264)"/>
      <use xlink:href="#CMSS17-65" transform="translate(222.687657 0) scale(0.996264)"/>
      <use xlink:href="#CMSS17-72" transform="translate(264.326479 0) scale(0.996264)"/>
      <use xlink:href="#CMSS17-61" transform="translate(296.236252 0) scale(0.996264)"/>
      <use xlink:href="#CMSS17-74" transform="translate(341.158172 0) scale(0.996264)"/>
      <use xlink:href="#CMSS17-75" transform="translate(374.989739 0) scale(0.996264)"/>
      <use xlink:href="#CMSS17-72" transform="translate(423.194682 0) scale(0.996264)"/>
      <use xlink:href="#CMSS17-65" transform="translate(455.104454 0) scale(0.996264)"/>
     </g>
    </g>
   </g>
  </g>
  <g id="axes_2">
   <g id="patch_8">
    <path d="M 36.692959 256.288407 
L 424.018425 256.288407 
L 424.018425 147.00024 
L 36.692959 147.00024 
z
" style="fill: #ffffff"/>
   </g>
   <g id="matplotlib.axis_3">
    <g id="xtick_7">
     <g id="line2d_23">
      <g>
       <use xlink:href="#m69d961a625" x="36.692959" y="256.288407" style="stroke: #000000; stroke-width: 0.8"/>
      </g>
     </g>
     <g id="text_13">
      <!-- $\mathdefault{0}$ -->
      <g transform="translate(34.202291 270.206905) scale(0.1 -0.1)">
       <use xlink:href="#CMR17-30" transform="scale(0.996264)"/>
      </g>
     </g>
    </g>
    <g id="xtick_8">
     <g id="line2d_24">
      <g>
       <use xlink:href="#m69d961a625" x="114.158052" y="256.288407" style="stroke: #000000; stroke-width: 0.8"/>
      </g>
     </g>
     <g id="text_14">
      <!-- $\mathdefault{10}$ -->
      <g transform="translate(109.176717 270.206905) scale(0.1 -0.1)">
       <use xlink:href="#CMR17-31" transform="scale(0.996264)"/>
       <use xlink:href="#CMR17-30" transform="translate(45.690477 0) scale(0.996264)"/>
      </g>
     </g>
    </g>
    <g id="xtick_9">
     <g id="line2d_25">
      <g>
       <use xlink:href="#m69d961a625" x="191.623145" y="256.288407" style="stroke: #000000; stroke-width: 0.8"/>
      </g>
     </g>
     <g id="text_15">
      <!-- $\mathdefault{20}$ -->
      <g transform="translate(186.64181 270.206905) scale(0.1 -0.1)">
       <use xlink:href="#CMR17-32" transform="scale(0.996264)"/>
       <use xlink:href="#CMR17-30" transform="translate(45.690477 0) scale(0.996264)"/>
      </g>
     </g>
    </g>
    <g id="xtick_10">
     <g id="line2d_26">
      <g>
       <use xlink:href="#m69d961a625" x="269.088238" y="256.288407" style="stroke: #000000; stroke-width: 0.8"/>
      </g>
     </g>
     <g id="text_16">
      <!-- $\mathdefault{30}$ -->
      <g transform="translate(264.106903 270.206905) scale(0.1 -0.1)">
       <use xlink:href="#CMR17-33" transform="scale(0.996264)"/>
       <use xlink:href="#CMR17-30" transform="translate(45.690477 0) scale(0.996264)"/>
      </g>
     </g>
    </g>
    <g id="xtick_11">
     <g id="line2d_27">
      <g>
       <use xlink:href="#m69d961a625" x="346.553332" y="256.288407" style="stroke: #000000; stroke-width: 0.8"/>
      </g>
     </g>
     <g id="text_17">
      <!-- $\mathdefault{40}$ -->
      <g transform="translate(341.571996 270.206905) scale(0.1 -0.1)">
       <use xlink:href="#CMR17-34" transform="scale(0.996264)"/>
       <use xlink:href="#CMR17-30" transform="translate(45.690477 0) scale(0.996264)"/>
      </g>
     </g>
    </g>
    <g id="xtick_12">
     <g id="line2d_28">
      <g>
       <use xlink:href="#m69d961a625" x="424.018425" y="256.288407" style="stroke: #000000; stroke-width: 0.8"/>
      </g>
     </g>
     <g id="text_18">
      <!-- $\mathdefault{50}$ -->
      <g transform="translate(419.037089 270.206905) scale(0.1 -0.1)">
       <use xlink:href="#CMR17-35" transform="scale(0.996264)"/>
       <use xlink:href="#CMR17-30" transform="translate(45.690477 0) scale(0.996264)"/>
      </g>
     </g>
    </g>
    <g id="text_19">
     <!-- \rmfamily{Time} $k$ -->
     <g transform="translate(214.7556 283.062582) scale(0.1 -0.1)">
      <use xlink:href="#CMR17-54" transform="scale(0.996264)"/>
      <use xlink:href="#CMR17-69" transform="translate(66.509881 0) scale(0.996264)"/>
      <use xlink:href="#CMR17-6d" transform="translate(91.380939 0) scale(0.996264)"/>
      <use xlink:href="#CMR17-65" transform="translate(168.300529 0) scale(0.996264)"/>
      <use xlink:href="#CMMI12-6b" transform="translate(238.862156 0) scale(0.996264)"/>
     </g>
    </g>
   </g>
   <g id="matplotlib.axis_4">
    <g id="ytick_4">
     <g id="line2d_29">
      <g>
       <use xlink:href="#mfc06d979f0" x="36.692959" y="238.073712" style="stroke: #000000; stroke-width: 0.8"/>
      </g>
     </g>
     <g id="text_20">
      <!-- $\mathdefault{−2}$ -->
      <g transform="translate(16.96288 241.532961) scale(0.1 -0.1)">
       <use xlink:href="#CMSY10-0" transform="scale(0.996264)"/>
       <use xlink:href="#CMR17-32" transform="translate(77.487468 0) scale(0.996264)"/>
      </g>
     </g>
    </g>
    <g id="ytick_5">
     <g id="line2d_30">
      <g>
       <use xlink:href="#mfc06d979f0" x="36.692959" y="201.644323" style="stroke: #000000; stroke-width: 0.8"/>
      </g>
     </g>
     <g id="text_21">
      <!-- $\mathdefault{0}$ -->
      <g transform="translate(24.711624 205.103572) scale(0.1 -0.1)">
       <use xlink:href="#CMR17-30" transform="scale(0.996264)"/>
      </g>
     </g>
    </g>
    <g id="ytick_6">
     <g id="line2d_31">
      <g>
       <use xlink:href="#mfc06d979f0" x="36.692959" y="165.214934" style="stroke: #000000; stroke-width: 0.8"/>
      </g>
     </g>
     <g id="text_22">
      <!-- $\mathdefault{2}$ -->
      <g transform="translate(24.711624 168.674184) scale(0.1 -0.1)">
       <use xlink:href="#CMR17-32" transform="scale(0.996264)"/>
      </g>
     </g>
    </g>
    <g id="text_23">
     <!-- $u(k)$ -->
     <g transform="translate(10.47222 211.1204) rotate(-90) scale(0.1 -0.1)">
      <defs>
       <path id="CMMI12-75" d="M 2182 370 
C 2266 12 2573 -64 2726 -64 
C 2931 -64 3085 70 3187 287 
C 3296 517 3379 893 3379 913 
C 3379 944 3354 970 3315 970 
C 3258 970 3251 938 3226 842 
C 3110 402 2995 64 2739 64 
C 2547 64 2547 274 2547 357 
C 2547 504 2566 568 2630 836 
C 2675 1008 2720 1181 2758 1359 
L 3021 2400 
C 3066 2560 3066 2572 3066 2591 
C 3066 2687 2989 2752 2893 2752 
C 2707 2752 2662 2591 2624 2432 
C 2560 2183 2214 810 2170 587 
C 2163 587 1914 64 1446 64 
C 1114 64 1050 351 1050 587 
C 1050 951 1229 1462 1395 1890 
C 1472 2094 1504 2177 1504 2305 
C 1504 2579 1306 2816 998 2816 
C 410 2816 173 1890 173 1838 
C 173 1813 198 1781 243 1781 
C 301 1781 307 1807 333 1896 
C 486 2445 736 2687 979 2687 
C 1043 2687 1146 2681 1146 2477 
C 1146 2311 1075 2126 979 1883 
C 698 1123 666 881 666 689 
C 666 38 1158 -64 1421 -64 
C 1830 -64 2054 217 2182 370 
z
" transform="scale(0.015625)"/>
      </defs>
      <use xlink:href="#CMMI12-75" transform="scale(0.996264)"/>
      <use xlink:href="#CMR17-28" transform="translate(55.52033 0) scale(0.996264)"/>
      <use xlink:href="#CMMI12-6b" transform="translate(90.801097 0) scale(0.996264)"/>
      <use xlink:href="#CMR17-29" transform="translate(144.880298 0) scale(0.996264)"/>
     </g>
    </g>
   </g>
   <g id="line2d_32">
    <path d="M 36.692959 178.298901 
L 44.439468 177.340295 
L 52.185978 176.926953 
L 59.932487 176.724113 
L 67.678996 176.67332 
L 75.425506 176.282279 
L 83.172015 175.654698 
L 90.918524 175.909587 
L 98.665034 175.85399 
L 106.411543 175.119164 
L 114.158052 176.761166 
L 121.904562 180.570796 
L 129.651071 202.178832 
L 137.39758 211.607452 
L 145.144089 220.393526 
L 152.890599 227.9383 
L 160.637108 232.284707 
L 168.383617 231.415426 
L 176.130127 230.672606 
L 183.876636 234.482234 
L 191.623145 233.727608 
L 199.369655 227.9383 
L 207.116164 220.393526 
L 214.862673 191.327306 
L 222.609183 195.136936 
L 230.355692 192.750212 
L 238.102201 183.964138 
L 245.848711 180.644689 
L 253.59522 179.51923 
L 261.341729 179.105888 
L 269.088238 178.903048 
L 276.834748 179.349792 
L 284.581257 178.417264 
L 292.327766 177.682438 
L 300.074276 179.32444 
L 307.820785 183.134069 
L 315.567294 202.178832 
L 323.313804 211.607452 
L 331.060313 220.393526 
L 338.806822 227.9383 
L 346.553332 232.284707 
L 354.299841 231.415426 
L 362.04635 230.672606 
L 369.79286 234.482234 
L 377.539369 233.727608 
L 385.285878 227.9383 
L 393.032387 220.393526 
L 400.778897 191.327306 
L 408.525406 195.136936 
L 416.271915 192.750212 
" clip-path="url(#p71073de07d)" style="fill: none; stroke: #1f77b4; stroke-width: 1.5; stroke-linecap: square"/>
   </g>
   <g id="line2d_33">
    <path d="M 36.692959 179.310828 
L 44.439468 178.225732 
L 52.185978 177.812389 
L 59.932487 177.609548 
L 67.678996 177.246232 
L 75.425506 176.832889 
L 83.172015 176.630049 
L 90.918524 176.68569 
L 98.665034 176.242041 
L 106.411543 175.507216 
L 114.158052 177.149218 
L 121.904562 180.958847 
L 129.651071 202.178832 
L 137.39758 211.607452 
L 145.144089 220.393526 
L 152.890599 227.9383 
L 160.637108 232.284707 
L 168.383617 231.415426 
L 176.130127 230.672606 
L 183.876636 234.482234 
L 191.623145 233.727608 
L 199.369655 227.9383 
L 207.116164 220.393526 
L 214.862673 191.327306 
L 222.609183 195.136936 
L 230.355692 192.750212 
L 238.102201 183.964138 
L 245.848711 180.644689 
L 253.59522 179.51923 
L 261.341729 179.105888 
L 269.088238 178.903048 
L 276.834748 179.349792 
L 284.581257 178.417264 
L 292.327766 177.682438 
L 300.074276 179.32444 
L 307.820785 183.134069 
L 315.567294 202.178832 
L 323.313804 211.607452 
L 331.060313 220.393526 
L 338.806822 227.9383 
L 346.553332 232.284707 
L 354.299841 231.415426 
L 362.04635 230.672606 
L 369.79286 234.482234 
L 377.539369 233.727608 
L 385.285878 227.9383 
L 393.032387 220.393526 
L 400.778897 191.327306 
L 408.525406 195.136936 
L 416.271915 192.750212 
" clip-path="url(#p71073de07d)" style="fill: none; stroke: #1f77b4; stroke-width: 1.5; stroke-linecap: square"/>
   </g>
   <g id="line2d_34">
    <path d="M 36.692959 180.322756 
L 44.439468 179.111168 
L 52.185978 178.697826 
L 59.932487 178.372331 
L 67.678996 177.814962 
L 75.425506 177.401619 
L 83.172015 177.198779 
L 90.918524 177.633564 
L 98.665034 176.715985 
L 106.411543 175.981159 
L 114.158052 177.623161 
L 121.904562 181.432791 
L 129.651071 202.178832 
L 137.39758 211.607452 
L 145.144089 220.393526 
L 152.890599 227.9383 
L 160.637108 232.284707 
L 168.383617 231.415426 
L 176.130127 230.672606 
L 183.876636 234.482234 
L 191.623145 233.727608 
L 199.369655 227.9383 
L 207.116164 220.393526 
L 214.862673 191.327306 
L 222.609183 195.136936 
L 230.355692 192.750212 
L 238.102201 183.964138 
L 245.848711 180.644689 
L 253.59522 179.51923 
L 261.341729 179.105888 
L 269.088238 178.903048 
L 276.834748 179.349792 
L 284.581257 178.417264 
L 292.327766 177.682438 
L 300.074276 179.32444 
L 307.820785 183.134069 
L 315.567294 202.178832 
L 323.313804 211.607452 
L 331.060313 220.393526 
L 338.806822 227.9383 
L 346.553332 232.284707 
L 354.299841 231.415426 
L 362.04635 230.672606 
L 369.79286 234.482234 
L 377.539369 233.727608 
L 385.285878 227.9383 
L 393.032387 220.393526 
L 400.778897 191.327306 
L 408.525406 195.136936 
L 416.271915 192.750212 
" clip-path="url(#p71073de07d)" style="fill: none; stroke: #1f77b4; stroke-width: 1.5; stroke-linecap: square"/>
   </g>
   <g id="line2d_35">
    <path d="M 36.692959 181.334683 
L 44.439468 179.996605 
L 52.185978 179.54945 
L 59.932487 179.136107 
L 67.678996 178.387794 
L 75.425506 177.974451 
L 83.172015 177.771611 
L 90.918524 178.218355 
L 98.665034 177.285827 
L 106.411543 176.551002 
L 114.158052 178.193003 
L 121.904562 182.002633 
L 129.651071 202.178832 
L 137.39758 211.607452 
L 145.144089 220.393526 
L 152.890599 227.9383 
L 160.637108 232.284707 
L 168.383617 231.415426 
L 176.130127 230.672606 
L 183.876636 234.482234 
L 191.623145 233.727608 
L 199.369655 227.9383 
L 207.116164 220.393526 
L 214.862673 191.327306 
L 222.609183 195.136936 
L 230.355692 192.750212 
L 238.102201 183.964138 
L 245.848711 180.644689 
L 253.59522 179.51923 
L 261.341729 179.105888 
L 269.088238 178.903048 
L 276.834748 179.349792 
L 284.581257 178.417264 
L 292.327766 177.682438 
L 300.074276 179.32444 
L 307.820785 183.134069 
L 315.567294 202.178832 
L 323.313804 211.607452 
L 331.060313 220.393526 
L 338.806822 227.9383 
L 346.553332 232.284707 
L 354.299841 231.415426 
L 362.04635 230.672606 
L 369.79286 234.482234 
L 377.539369 233.727608 
L 385.285878 227.9383 
L 393.032387 220.393526 
L 400.778897 191.327306 
L 408.525406 195.136936 
L 416.271915 192.750212 
" clip-path="url(#p71073de07d)" style="fill: none; stroke: #1f77b4; stroke-width: 1.5; stroke-linecap: square"/>
   </g>
   <g id="line2d_36">
    <path d="M 36.692959 182.346611 
L 44.439468 180.882042 
L 52.185978 180.324207 
L 59.932487 179.910864 
L 67.678996 178.968861 
L 75.425506 178.555519 
L 83.172015 178.352679 
L 90.918524 178.799422 
L 98.665034 177.866895 
L 106.411543 177.132069 
L 114.158052 178.774071 
L 121.904562 182.583701 
L 129.651071 202.178832 
L 137.39758 211.607452 
L 145.144089 220.393526 
L 152.890599 227.9383 
L 160.637108 232.284707 
L 168.383617 231.415426 
L 176.130127 230.672606 
L 183.876636 234.482234 
L 191.623145 233.727608 
L 199.369655 227.9383 
L 207.116164 220.393526 
L 214.862673 191.327306 
L 222.609183 195.136936 
L 230.355692 192.750212 
L 238.102201 183.964138 
L 245.848711 180.644689 
L 253.59522 179.51923 
L 261.341729 179.105888 
L 269.088238 178.903048 
L 276.834748 179.349792 
L 284.581257 178.417264 
L 292.327766 177.682438 
L 300.074276 179.32444 
L 307.820785 183.134069 
L 315.567294 202.178832 
L 323.313804 211.607452 
L 331.060313 220.393526 
L 338.806822 227.9383 
L 346.553332 232.284707 
L 354.299841 231.415426 
L 362.04635 230.672606 
L 369.79286 234.482234 
L 377.539369 233.727608 
L 385.285878 227.9383 
L 393.032387 220.393526 
L 400.778897 191.327306 
L 408.525406 195.136936 
L 416.271915 192.750212 
" clip-path="url(#p71073de07d)" style="fill: none; stroke: #1f77b4; stroke-width: 1.5; stroke-linecap: square"/>
   </g>
   <g id="line2d_37">
    <path d="M 36.692959 183.358538 
L 44.439468 181.767478 
L 52.185978 181.385487 
L 59.932487 180.644689 
L 67.678996 179.51923 
L 75.425506 179.105888 
L 83.172015 178.903048 
L 90.918524 179.349791 
L 98.665034 178.417263 
L 106.411543 177.682438 
L 114.158052 179.32444 
L 121.904562 183.134069 
L 129.651071 202.178832 
L 137.39758 211.607452 
L 145.144089 220.393526 
L 152.890599 227.9383 
L 160.637108 232.284707 
L 168.383617 231.415426 
L 176.130127 230.672606 
L 183.876636 234.482234 
L 191.623145 233.727608 
L 199.369655 227.9383 
L 207.116164 220.393526 
L 214.862673 191.327306 
L 222.609183 195.136936 
L 230.355692 192.750212 
L 238.102201 183.964138 
L 245.848711 180.644689 
L 253.59522 179.51923 
L 261.341729 179.105888 
L 269.088238 178.903048 
L 276.834748 179.349792 
L 284.581257 178.417264 
L 292.327766 177.682438 
L 300.074276 179.32444 
L 307.820785 183.134069 
L 315.567294 202.178832 
L 323.313804 211.607452 
L 331.060313 220.393526 
L 338.806822 227.9383 
L 346.553332 232.284707 
L 354.299841 231.415426 
L 362.04635 230.672606 
L 369.79286 234.482234 
L 377.539369 233.727608 
L 385.285878 227.9383 
L 393.032387 220.393526 
L 400.778897 191.327306 
L 408.525406 195.136936 
L 416.271915 192.750212 
" clip-path="url(#p71073de07d)" style="fill: none; stroke: #1f77b4; stroke-width: 1.5; stroke-linecap: square"/>
   </g>
   <g id="line2d_38">
    <path d="M 36.692959 184.370466 
L 44.439468 186.272319 
L 52.185978 183.964138 
L 59.932487 180.644689 
L 67.678996 179.51923 
L 75.425506 179.105888 
L 83.172015 178.903048 
L 90.918524 179.349792 
L 98.665034 178.417264 
L 106.411543 177.682438 
L 114.158052 179.32444 
L 121.904562 183.134069 
L 129.651071 202.178832 
L 137.39758 211.607452 
L 145.144089 220.393526 
L 152.890599 227.9383 
L 160.637108 232.284707 
L 168.383617 231.415426 
L 176.130127 230.672606 
L 183.876636 234.482234 
L 191.623145 233.727608 
L 199.369655 227.9383 
L 207.116164 220.393526 
L 214.862673 191.327306 
L 222.609183 195.136936 
L 230.355692 192.750212 
L 238.102201 183.964138 
L 245.848711 180.644689 
L 253.59522 179.51923 
L 261.341729 179.105888 
L 269.088238 178.903048 
L 276.834748 179.349792 
L 284.581257 178.417264 
L 292.327766 177.682438 
L 300.074276 179.32444 
L 307.820785 183.134069 
L 315.567294 202.178832 
L 323.313804 211.607452 
L 331.060313 220.393526 
L 338.806822 227.9383 
L 346.553332 232.284707 
L 354.299841 231.415426 
L 362.04635 230.672606 
L 369.79286 234.482234 
L 377.539369 233.727608 
L 385.285878 227.9383 
L 393.032387 220.393526 
L 400.778897 191.327306 
L 408.525406 195.136936 
L 416.271915 192.750212 
" clip-path="url(#p71073de07d)" style="fill: none; stroke: #1f77b4; stroke-width: 1.5; stroke-linecap: square"/>
   </g>
   <g id="line2d_39">
    <path d="M 36.692959 187.464288 
L 44.439468 191.273917 
L 52.185978 183.964138 
L 59.932487 180.644689 
L 67.678996 179.51923 
L 75.425506 179.105888 
L 83.172015 178.903048 
L 90.918524 179.349792 
L 98.665034 178.417264 
L 106.411543 177.682438 
L 114.158052 179.32444 
L 121.904562 183.134069 
L 129.651071 202.178832 
L 137.39758 211.607452 
L 145.144089 220.393526 
L 152.890599 227.9383 
L 160.637108 232.284707 
L 168.383617 231.415426 
L 176.130127 230.672606 
L 183.876636 234.482234 
L 191.623145 233.727608 
L 199.369655 227.9383 
L 207.116164 220.393526 
L 214.862673 191.327306 
L 222.609183 195.136936 
L 230.355692 192.750212 
L 238.102201 183.964138 
L 245.848711 180.644689 
L 253.59522 179.51923 
L 261.341729 179.105888 
L 269.088238 178.903048 
L 276.834748 179.349792 
L 284.581257 178.417264 
L 292.327766 177.682438 
L 300.074276 179.32444 
L 307.820785 183.134069 
L 315.567294 202.178832 
L 323.313804 211.607452 
L 331.060313 220.393526 
L 338.806822 227.9383 
L 346.553332 232.284707 
L 354.299841 231.415426 
L 362.04635 230.672606 
L 369.79286 234.482234 
L 377.539369 233.727608 
L 385.285878 227.9383 
L 393.032387 220.393526 
L 400.778897 191.327306 
L 408.525406 195.136936 
L 416.271915 192.750212 
" clip-path="url(#p71073de07d)" style="fill: none; stroke: #1f77b4; stroke-width: 1.5; stroke-linecap: square"/>
   </g>
   <g id="line2d_40">
    <path d="M 36.692959 194.083412 
L 44.439468 192.750212 
L 52.185978 183.964138 
L 59.932487 180.644689 
L 67.678996 179.51923 
L 75.425506 179.105888 
L 83.172015 178.903048 
L 90.918524 179.349792 
L 98.665034 178.417264 
L 106.411543 177.682438 
L 114.158052 179.32444 
L 121.904562 183.134069 
L 129.651071 202.178832 
L 137.39758 211.607452 
L 145.144089 220.393526 
L 152.890599 227.9383 
L 160.637108 232.284707 
L 168.383617 231.415426 
L 176.130127 230.672606 
L 183.876636 234.482234 
L 191.623145 233.727608 
L 199.369655 227.9383 
L 207.116164 220.393526 
L 214.862673 191.327306 
L 222.609183 195.136936 
L 230.355692 192.750212 
L 238.102201 183.964138 
L 245.848711 180.644689 
L 253.59522 179.51923 
L 261.341729 179.105888 
L 269.088238 178.903048 
L 276.834748 179.349792 
L 284.581257 178.417264 
L 292.327766 177.682438 
L 300.074276 179.32444 
L 307.820785 183.134069 
L 315.567294 202.178832 
L 323.313804 211.607452 
L 331.060313 220.393526 
L 338.806822 227.9383 
L 346.553332 232.284707 
L 354.299841 231.415426 
L 362.04635 230.672606 
L 369.79286 234.482234 
L 377.539369 233.727608 
L 385.285878 227.9383 
L 393.032387 220.393526 
L 400.778897 191.327306 
L 408.525406 195.136936 
L 416.271915 192.750212 
" clip-path="url(#p71073de07d)" style="fill: none; stroke: #1f77b4; stroke-width: 1.5; stroke-linecap: square"/>
   </g>
   <g id="line2d_41">
    <path d="M 36.692959 202.178832 
L 44.439468 192.750212 
L 52.185978 183.964138 
L 59.932487 180.644689 
L 67.678996 179.51923 
L 75.425506 179.105888 
L 83.172015 178.903048 
L 90.918524 179.349792 
L 98.665034 178.417264 
L 106.411543 177.682438 
L 114.158052 179.32444 
L 121.904562 183.134069 
L 129.651071 202.178832 
L 137.39758 211.607452 
L 145.144089 220.393526 
L 152.890599 227.9383 
L 160.637108 232.284707 
L 168.383617 231.415426 
L 176.130127 230.672606 
L 183.876636 234.482234 
L 191.623145 233.727608 
L 199.369655 227.9383 
L 207.116164 220.393526 
L 214.862673 191.327306 
L 222.609183 195.136936 
L 230.355692 192.750212 
L 238.102201 183.964138 
L 245.848711 180.644689 
L 253.59522 179.51923 
L 261.341729 179.105888 
L 269.088238 178.903048 
L 276.834748 179.349792 
L 284.581257 178.417264 
L 292.327766 177.682438 
L 300.074276 179.32444 
L 307.820785 183.134069 
L 315.567294 202.178832 
L 323.313804 211.607452 
L 331.060313 220.393526 
L 338.806822 227.9383 
L 346.553332 232.284707 
L 354.299841 231.415426 
L 362.04635 230.672606 
L 369.79286 234.482234 
L 377.539369 233.727608 
L 385.285878 227.9383 
L 393.032387 220.393526 
L 400.778897 191.327306 
L 408.525406 195.136936 
L 416.271915 192.750212 
" clip-path="url(#p71073de07d)" style="fill: none; stroke: #1f77b4; stroke-width: 1.5; stroke-linecap: square"/>
   </g>
   <g id="patch_9">
    <path d="M 36.692959 256.288407 
L 36.692959 147.00024 
" style="fill: none; stroke: #000000; stroke-width: 0.8; stroke-linejoin: miter; stroke-linecap: square"/>
   </g>
   <g id="patch_10">
    <path d="M 424.018425 256.288407 
L 424.018425 147.00024 
" style="fill: none; stroke: #000000; stroke-width: 0.8; stroke-linejoin: miter; stroke-linecap: square"/>
   </g>
   <g id="patch_11">
    <path d="M 36.692959 256.288407 
L 424.018425 256.288407 
" style="fill: none; stroke: #000000; stroke-width: 0.8; stroke-linejoin: miter; stroke-linecap: square"/>
   </g>
   <g id="patch_12">
    <path d="M 36.692959 147.00024 
L 424.018425 147.00024 
" style="fill: none; stroke: #000000; stroke-width: 0.8; stroke-linejoin: miter; stroke-linecap: square"/>
   </g>
   <g id="legend_2">
    <g id="patch_13">
     <path d="M 363.21127 168.937418 
L 417.018425 168.937418 
Q 419.018425 168.937418 419.018425 166.937418 
L 419.018425 154.00024 
Q 419.018425 152.00024 417.018425 152.00024 
L 363.21127 152.00024 
Q 361.21127 152.00024 361.21127 154.00024 
L 361.21127 166.937418 
Q 361.21127 168.937418 363.21127 168.937418 
z
" style="fill: #ffffff; opacity: 0.8; stroke: #cccccc; stroke-linejoin: miter"/>
    </g>
    <g id="line2d_42">
     <path d="M 365.21127 159.50024 
L 375.21127 159.50024 
L 385.21127 159.50024 
" style="fill: none; stroke: #1f77b4; stroke-width: 1.5; stroke-linecap: square"/>
    </g>
    <g id="text_24">
     <!-- Input -->
     <g transform="translate(393.21127 163.00024) scale(0.1 -0.1)">
      <defs>
       <path id="CMSS17-49" d="M 1094 4416 
L 557 4416 
L 557 0 
L 1094 0 
L 1094 4416 
z
" transform="scale(0.015625)"/>
       <path id="CMSS17-6e" d="M 2618 1878 
C 2618 2283 2522 2816 1798 2816 
C 1389 2816 1120 2604 941 2386 
L 941 2783 
L 474 2783 
L 474 0 
L 960 0 
L 960 1556 
C 960 1962 1114 2425 1549 2425 
C 2112 2425 2131 2045 2131 1826 
L 2131 0 
L 2618 0 
L 2618 1878 
z
" transform="scale(0.015625)"/>
      </defs>
      <use xlink:href="#CMSS17-49" transform="scale(0.996264)"/>
      <use xlink:href="#CMSS17-6e" transform="translate(25.783926 0) scale(0.996264)"/>
      <use xlink:href="#CMSS17-70" transform="translate(73.988869 0) scale(0.996264)"/>
      <use xlink:href="#CMSS17-75" transform="translate(122.193812 0) scale(0.996264)"/>
      <use xlink:href="#CMSS17-74" transform="translate(170.398755 0) scale(0.996264)"/>
     </g>
    </g>
   </g>
  </g>
 </g>
 <defs>
  <clipPath id="pcc10d789c8">
   <rect x="36.692959" y="3.00024" width="387.325466" height="109.288167"/>
  </clipPath>
  <clipPath id="p71073de07d">
   <rect x="36.692959" y="147.00024" width="387.325466" height="109.288167"/>
  </clipPath>
 </defs>
</svg>
